<svg width="48" height="48" viewBox="0 0 48 48" fill="none" xmlns="http://www.w3.org/2000/svg">
<path d="M35.0068 0H12.9931C5.8286 0 0 5.8286 0 12.9931V35.0071C0 42.1713 5.8286 47.9999 12.9931 47.9999H35.0071C42.1713 47.9999 47.9999 42.1713 47.9999 35.0071V12.9931C47.9999 5.8286 42.1713 0 35.0068 0V0ZM45.186 35.0071C45.186 40.6197 40.6197 45.186 35.0068 45.186H12.9931C7.38024 45.186 2.81396 40.6197 2.81396 35.0071V12.9931C2.81396 7.38024 7.38024 2.81396 12.9931 2.81396H35.0071C40.6197 2.81396 45.186 7.38024 45.186 12.9931V35.0071Z" fill="white"/>
<path d="M23.9996 10.8752C16.7626 10.8752 10.875 16.7628 10.875 23.9999C10.875 31.2369 16.7626 37.1245 23.9996 37.1245C31.2367 37.1245 37.1242 31.2369 37.1242 23.9999C37.1242 16.7628 31.2367 10.8752 23.9996 10.8752ZM23.9996 34.3105C18.3146 34.3105 13.689 29.6853 13.689 23.9999C13.689 18.3148 18.3146 13.6892 23.9996 13.6892C29.685 13.6892 34.3103 18.3148 34.3103 23.9999C34.3103 29.6853 29.685 34.3105 23.9996 34.3105Z" fill="white"/>
<path d="M23.9996 10.8752C16.7626 10.8752 10.875 16.7628 10.875 23.9999C10.875 31.2369 16.7626 37.1245 23.9996 37.1245C31.2367 37.1245 37.1242 31.2369 37.1242 23.9999C37.1242 16.7628 31.2367 10.8752 23.9996 10.8752ZM23.9996 34.3105C18.3146 34.3105 13.689 29.6853 13.689 23.9999C13.689 18.3148 18.3146 13.6892 23.9996 13.6892C29.685 13.6892 34.3103 18.3148 34.3103 23.9999C34.3103 29.6853 29.685 34.3105 23.9996 34.3105Z" fill="white"/>
<path d="M37.4387 6.21411C35.3 6.21411 33.5605 7.95398 33.5605 10.0923C33.5605 12.2309 35.3 13.9708 37.4387 13.9708C39.5774 13.9708 41.3172 12.2309 41.3172 10.0923C41.3172 7.95361 39.5774 6.21411 37.4387 6.21411ZM37.4387 11.1565C36.852 11.1565 36.3745 10.6789 36.3745 10.0923C36.3745 9.50524 36.852 9.02807 37.4387 9.02807C38.0257 9.02807 38.5033 9.50524 38.5033 10.0923C38.5033 10.6789 38.0257 11.1565 37.4387 11.1565Z" fill="white"/>
</svg>
