<svg width="449" height="98" viewBox="0 0 449 98" fill="none" xmlns="http://www.w3.org/2000/svg">
<path d="M17.0058 16.3441H11.0619C9.88485 16.3441 8.86385 16.7871 7.97942 17.6665C7.58272 18.0638 7.26407 18.5198 7.03645 19.0214C6.80234 19.523 6.69178 20.0702 6.69178 20.6565V42.0687C6.69178 42.6159 6.81534 43.1892 7.06897 43.8015C7.44615 44.4334 7.78432 44.8829 8.07696 45.1565C8.53869 45.5538 8.98741 45.847 9.42963 46.0359C9.99541 46.2443 10.5417 46.3486 11.0619 46.3486H31.6836C32.8346 46.3486 33.8556 45.9186 34.7336 45.0587C35.6115 44.1989 36.0537 43.2022 36.0537 42.0687V10.2663H42.778V42.0687C42.778 43.4106 42.4919 44.72 41.9131 45.9903C41.3343 47.2606 40.5409 48.381 39.5264 49.3581C38.5119 50.3353 37.3283 51.104 35.9887 51.6707C35.2343 51.9638 34.532 52.1527 33.8816 52.2374C33.3354 52.3872 32.6005 52.4589 31.6836 52.4589H11.0619C9.53368 52.4589 8.06396 52.1853 6.65927 51.6381C5.2936 50.9867 4.12302 50.218 3.14104 49.3386C2.11353 48.3549 1.33315 47.228 0.79989 45.9707C0.266628 44.7135 0 43.4106 0 42.0687V20.6565C0 19.295 0.286139 17.9726 0.851917 16.6893C1.41769 15.4125 2.19158 14.3051 3.18006 13.3801C3.76535 12.8134 4.32462 12.3834 4.84488 12.0903C5.39114 11.6929 6.02846 11.3542 6.76332 11.0806C8.18752 10.5334 9.62472 10.2598 11.0684 10.2598H17.0124V16.3441H17.0058ZM23.1644 0.56665H29.8887V6.67699H23.1644V0.56665Z" fill="white"/>
<path d="M57.9951 0V42.1274C57.9951 42.4857 58.0146 42.7854 58.0602 43.0264C58.0992 43.2674 58.1837 43.554 58.3138 43.8928C58.5414 44.3553 58.8796 44.7852 59.3218 45.1826C60.1607 46.0034 61.4288 46.4138 63.1262 46.4138V52.4915C61.1362 52.4915 59.4519 52.218 58.0667 51.6708C56.6815 51.1236 55.4849 50.3809 54.4704 49.4364C53.4559 48.4918 52.669 47.3779 52.1098 46.1011C51.557 44.8243 51.2773 43.5019 51.2773 42.1339V0.00651064H57.9951V0Z" fill="white"/>
<path d="M72.4194 49.5015C71.4569 50.407 70.3253 51.1171 69.0247 51.6447C67.6395 52.2115 65.2854 52.4916 61.9492 52.4916V46.4138C64.9472 46.4138 66.8786 45.9904 67.7501 45.137C68.6215 44.2902 69.0572 43.287 69.0572 42.1274V10.2925H75.749V42.1274C75.749 43.3 76.1977 44.3293 77.1016 45.2152C77.4983 45.6321 77.9536 45.9383 78.4543 46.1272C78.9551 46.3161 80.4053 46.4138 82.7919 46.4138V52.4916H81.2182C78.8055 52.4069 76.9651 52.1203 75.684 51.6447C74.4353 51.078 73.3428 50.3614 72.4194 49.5015ZM63.9002 56.7128H70.6245V62.8231H63.9002V56.7128ZM74.1817 56.7128H80.906V62.8231H74.1817V56.7128Z" fill="white"/>
<path d="M93.9845 10.364V42.199C93.9845 43.5409 93.6984 44.8568 93.1196 46.1531C92.5408 47.443 91.7539 48.5634 90.7589 49.508C89.7639 50.4525 88.5739 51.2016 87.1887 51.7423C85.8685 52.2244 84.5029 52.498 83.1047 52.5631H82.0967V46.4854C83.8135 46.4854 85.0946 46.075 85.9336 45.2607C86.3758 44.8633 86.7009 44.4008 86.922 43.8732C87.1432 43.3455 87.2537 42.7918 87.2537 42.2055V10.3705H93.9845V10.364ZM87.2602 0.56665H93.9845V6.67699H87.2602V0.56665Z" fill="white"/>
<path d="M109.487 0.0651855H102.789V52.4916H109.487V0.0651855Z" fill="white"/>
<path d="M130.102 42.1926C130.102 43.3912 130.551 44.3879 131.455 45.1826C131.852 45.58 132.326 45.8862 132.873 46.0946C133.4 46.3031 133.887 46.4073 134.349 46.4073H135.259V52.4851C132.684 52.4851 130.961 52.244 130.102 51.762V52.3939C130.102 53.7814 129.816 55.1038 129.237 56.3741C128.659 57.6443 127.872 58.7517 126.877 59.6963C125.882 60.6408 124.692 61.377 123.307 61.8981C121.986 62.3997 120.601 62.6863 119.158 62.7515H118.247V56.6737C118.982 56.6737 119.502 56.6281 119.821 56.5499C120.133 56.4652 120.406 56.3805 120.64 56.2959C121.245 56.0418 121.733 55.7422 122.103 55.3839C122.468 55.0256 122.78 54.5761 123.033 54.0289C123.287 53.5013 123.411 52.9606 123.411 52.3939V10.2925H130.109V42.1926H130.102Z" fill="white"/>
<path d="M146.543 10.364V42.199C146.543 43.5409 146.257 44.8568 145.679 46.1531C145.1 47.4429 144.313 48.5569 143.318 49.4884C142.323 50.4264 141.139 51.169 139.767 51.7228C138.395 52.2765 136.691 52.5566 134.662 52.5566V46.4788H135.638C136.704 46.4397 137.66 46.0293 138.499 45.2541C138.941 44.8568 139.266 44.3943 139.487 43.8666C139.709 43.339 139.819 42.7853 139.819 42.199V10.364H146.543ZM134.662 56.7713H141.386V62.8816H134.662V56.7713ZM144.345 56.7713H151.044V62.8816H144.345V56.7713Z" fill="white"/>
<path d="M162.04 0.0651855H155.342V52.4916H162.04V0.0651855Z" fill="white"/>
<path d="M231.071 49.5339C230.194 50.3742 229.082 51.0843 227.742 51.6771C227.111 51.9116 226.415 52.107 225.654 52.2764C224.887 52.4458 224.139 52.5304 223.404 52.5304H197.691C197.274 52.4457 196.897 52.3936 196.559 52.3741C196.221 52.3546 195.811 52.3024 195.317 52.2178C194.823 52.1331 194.198 51.9572 193.444 51.6836C192.163 51.1169 191.005 50.3547 189.958 49.3971C188.911 48.446 188.105 47.3126 187.539 46.0097C187.285 45.443 187.09 44.8176 186.941 44.1336C186.791 43.4496 186.72 42.7721 186.72 42.1012V20.7541C186.72 19.3861 186.98 18.0833 187.507 16.8325C188.027 15.5818 188.801 14.5005 189.815 13.5885C190.83 12.6765 192.052 11.9143 193.477 11.3085C194.901 10.7027 196.325 10.3965 197.749 10.3965H203.661V16.4743H197.749C197.222 16.4743 196.683 16.5785 196.117 16.7869C195.675 16.9758 195.206 17.282 194.706 17.6989C193.847 18.5197 193.418 19.5359 193.418 20.7541V42.1012C193.418 42.6484 193.535 43.1956 193.782 43.7558C194.023 44.316 194.335 44.785 194.712 45.1759C195.089 45.5667 195.545 45.8664 196.078 46.0749C196.611 46.2833 197.17 46.3875 197.762 46.3875H223.411C223.937 46.3875 224.464 46.2898 224.998 46.0879C225.531 45.8859 225.999 45.5798 226.396 45.1564C227.3 44.3616 227.748 43.3649 227.748 42.1663V10.3965H234.473V42.1012C234.473 42.5442 234.486 42.8568 234.518 43.0457C234.551 43.2346 234.635 43.5083 234.785 43.8665C235.038 44.3877 235.37 44.8437 235.793 45.2215C236.567 45.9967 237.523 46.3941 238.654 46.4201H238.966C239.513 46.4006 240 46.3029 240.443 46.1335C240.943 45.9446 241.399 45.6384 241.795 45.2215C242.699 44.3616 243.148 43.3454 243.148 42.1663V10.3965H249.846V42.1663C249.846 42.7722 249.963 43.3324 250.21 43.834C250.451 44.3356 250.77 44.7981 251.173 45.2215C251.992 45.9967 252.955 46.3941 254.067 46.4201H254.346C254.763 46.4006 255.224 46.2963 255.732 46.1074C256.278 45.899 256.772 45.5928 257.208 45.1954C258.112 44.3356 258.561 43.3258 258.561 42.1728V10.403H265.259V42.1728C265.259 42.7591 265.376 43.3128 265.623 43.8274C265.864 44.3421 266.182 44.8111 266.579 45.228C267.398 46.0032 268.348 46.4006 269.44 46.4266H270.383V52.5369H269.473C269.096 52.5369 268.757 52.5044 268.465 52.4458C268.088 52.4262 267.652 52.3741 267.158 52.2894C266.663 52.2047 266.039 52.0288 265.285 51.7552C264.108 51.2341 262.976 50.485 261.89 49.5209C261.012 50.3807 259.887 51.1038 258.528 51.6901C257.897 51.9246 257.201 52.12 256.44 52.2894C255.673 52.4588 254.925 52.5435 254.19 52.5435C252.597 52.5435 251.173 52.2699 249.918 51.7227C248.702 51.2211 247.557 50.4915 246.491 49.5469C245.613 50.3677 244.501 51.0778 243.161 51.6901C242.53 51.9246 241.834 52.12 241.073 52.2894C240.306 52.4588 239.558 52.5435 238.823 52.5435H238.7C238.323 52.5435 237.984 52.5109 237.692 52.4523C237.315 52.4327 236.879 52.3806 236.385 52.2959C235.89 52.2112 235.273 52.0354 234.512 51.7618C233.257 51.1885 232.119 50.4524 231.071 49.5339ZM239.591 6.55311H232.892V0.475342H239.591V6.55311ZM243.141 0.475342H249.84V6.55311H243.141V0.475342ZM260.115 6.55311H253.39V0.475342H260.115V6.55311Z" fill="white"/>
<path d="M312.296 38.5771C312.315 38.5576 311.86 38.6618 310.93 38.8898C310 39.1243 309.005 39.235 307.958 39.235H287.402C285.847 39.235 284.397 38.9484 283.051 38.3817C281.698 37.8149 280.528 37.0528 279.546 36.0952C278.557 35.1441 277.784 34.0367 277.205 32.7925C276.626 31.5417 276.34 30.2259 276.34 28.8383V20.7803C276.34 19.3732 276.619 18.0508 277.172 16.8131C277.725 15.5754 278.505 14.481 279.513 13.5234C280.521 12.5658 281.698 11.8037 283.051 11.2239C284.404 10.6441 285.854 10.3575 287.402 10.3575H307.958C309.467 10.3575 310.904 10.6441 312.263 11.2239C313.623 11.8037 314.806 12.5658 315.814 13.5234C316.822 14.481 317.609 15.5754 318.175 16.8131C318.741 18.0508 319.027 19.3732 319.027 20.7803V42.5052C319.111 43.7038 319.541 44.6028 320.314 45.2151C321.114 46.0163 322.077 46.4137 323.208 46.4137H324.119V52.524C322.044 52.524 320.36 52.27 319.072 51.7554C317.785 51.2407 316.53 50.446 315.313 49.3777C314.787 50.3027 313.831 51.0583 312.439 51.6446C311.047 52.2309 309.552 52.524 307.958 52.524L268.666 52.4328L268.542 46.3876L307.958 46.4202C309.155 46.4202 310.104 46.0619 310.82 45.3519V45.2867C311.047 45.0783 311.223 44.922 311.34 44.8308C311.457 44.7396 311.535 44.6353 311.574 44.5311C311.971 43.9253 312.211 43.2478 312.296 42.5182V38.5771ZM287.402 16.4679C286.166 16.4679 285.152 16.8587 284.352 17.6339C283.474 18.4742 283.032 19.523 283.032 20.7803V28.8383C283.032 29.4442 283.149 30.0239 283.376 30.5711C283.604 31.1183 283.929 31.5678 284.352 31.9261C285.23 32.7273 286.251 33.1247 287.402 33.1247H307.958C309.174 33.1247 310.189 32.7143 311.008 31.8935C311.867 31.0141 312.296 29.9914 312.296 28.8383V20.7803C312.296 19.5621 311.873 18.5394 311.021 17.7121C310.169 16.8848 309.148 16.4679 307.958 16.4679H287.402ZM288.845 0.56665H295.57V6.67699H288.845V0.56665ZM299.153 0.56665H305.877V6.67699H299.153V0.56665Z" fill="white"/>
<path d="M335.591 10.364V42.199C335.591 43.5409 335.305 44.8568 334.726 46.1531C334.147 47.443 333.36 48.5634 332.365 49.508C331.37 50.4525 330.18 51.2016 328.795 51.7423C327.475 52.2244 326.109 52.498 324.711 52.5631H323.703V46.4854C325.42 46.4854 326.701 46.075 327.54 45.2607C327.982 44.8633 328.307 44.4008 328.528 43.8732C328.75 43.3455 328.86 42.7918 328.86 42.2055V10.3705H335.591V10.364ZM328.86 0.56665H335.584V6.67699H328.86V0.56665Z" fill="white"/>
<path d="M366.93 0V42.1274C366.93 42.4857 366.949 42.7854 366.995 43.0264C367.034 43.2674 367.118 43.554 367.249 43.8928C367.476 44.3553 367.814 44.7852 368.257 45.1826C369.095 46.0034 370.364 46.4138 372.061 46.4138V52.4915C370.071 52.4915 368.387 52.218 367.001 51.6708C365.616 51.1236 364.42 50.3809 363.399 49.4364C362.384 48.4918 361.597 47.3779 361.038 46.1011C360.485 44.8243 360.206 43.5019 360.206 42.1339V0.00651064H366.93V0Z" fill="white"/>
<path d="M409.305 49.5015C408.362 50.3613 407.243 51.0584 405.943 51.5795C404.558 52.1462 403.094 52.4329 401.54 52.4329H369.915V46.3877H401.54C402.106 46.3877 402.659 46.2834 403.192 46.075C403.725 45.8665 404.193 45.5538 404.59 45.1304C405.488 44.3357 405.943 43.3325 405.943 42.1404V35.1506C405.943 34.0172 405.501 33.0205 404.623 32.1606C403.745 31.3007 402.717 30.8708 401.54 30.8708H375.072V20.7021C375.072 19.3146 375.332 18.0117 375.859 16.7806C376.386 15.5494 377.16 14.442 378.187 13.4583C379.215 12.4747 380.431 11.706 381.835 11.1588C382.466 10.9308 383.156 10.7158 383.91 10.5269C384.333 10.4618 384.703 10.4097 385.041 10.3706C385.334 10.351 385.646 10.3315 385.984 10.3054H406.196V16.4158H386.173C385.672 16.4158 385.113 16.52 384.508 16.7284C384.027 16.9173 383.565 17.2235 383.123 17.6404C382.219 18.4808 381.77 19.497 381.77 20.6956V24.7279H401.54C403.068 24.7279 404.506 25.008 405.845 25.5748C407.185 26.1415 408.394 26.8971 409.461 27.8417C410.404 28.7862 411.171 29.8872 411.757 31.1444C412.342 32.4016 412.635 33.737 412.635 35.1441V42.0687C412.635 42.7202 412.758 43.3064 413.012 43.8341C413.265 44.3618 413.564 44.7982 413.922 45.1565C414.742 45.9773 415.717 46.3942 416.849 46.4137H417.792V52.4915H416.881C415.392 52.4263 413.987 52.1528 412.667 51.6707C411.386 51.13 410.267 50.4004 409.305 49.5015Z" fill="white"/>
<path d="M427.442 49.5015C426.479 50.407 425.348 51.1171 424.047 51.6447C422.662 52.2115 420.308 52.4916 416.972 52.4916V46.4138C419.97 46.4138 421.901 45.9904 422.773 45.137C423.644 44.2902 424.08 43.287 424.08 42.1274V10.2925H430.778V42.1274C430.778 43.3 431.227 44.3293 432.131 45.2152C432.527 45.6321 432.976 45.9383 433.483 46.1272C433.984 46.3161 435.434 46.4138 437.821 46.4138V52.4916H436.247C433.835 52.4069 431.994 52.1203 430.713 51.6447C429.451 51.078 428.359 50.3614 427.442 49.5015ZM418.923 56.7128H425.647V62.8231H418.923V56.7128ZM429.198 56.7128H435.922V62.8231H429.198V56.7128Z" fill="white"/>
<path d="M449 10.364V42.199C449 43.5409 448.714 44.8568 448.135 46.1531C447.556 47.443 446.769 48.5634 445.774 49.508C444.779 50.4525 443.589 51.2016 442.204 51.7423C440.884 52.2244 439.518 52.498 438.12 52.5631H437.112V46.4854C438.829 46.4854 440.11 46.075 440.949 45.2607C441.391 44.8633 441.716 44.4008 441.937 43.8732C442.158 43.3455 442.269 42.7918 442.269 42.2055V10.3705H449V10.364ZM442.275 0.56665H449V6.67699H442.275V0.56665Z" fill="white"/>
<path d="M2.24381 79.6235H4.74103L12.766 91.3751C12.9351 91.6161 13.1041 91.8897 13.2862 92.1959C13.4683 92.5021 13.6309 92.7822 13.7805 93.0493C13.9496 93.3685 14.1121 93.6811 14.2812 93.9873H14.3332C14.3007 93.6811 14.2682 93.3684 14.2422 93.0623C14.2162 92.7952 14.1967 92.5086 14.1772 92.2024C14.1577 91.8963 14.1512 91.6227 14.1512 91.3686V79.6169H16.6874V97.6939H14.2032L6.15223 85.9683C5.98315 85.7208 5.81406 85.4406 5.63848 85.141C5.46289 84.8348 5.30031 84.5482 5.15074 84.2811C4.97515 83.9619 4.80607 83.6492 4.63698 83.33H4.58496C4.61097 83.6492 4.63699 83.9619 4.6695 84.2681C4.68901 84.5352 4.70202 84.8218 4.72803 85.1214C4.74754 85.4276 4.76055 85.7077 4.76055 85.9683V97.6939H2.2373V79.6235H2.24381Z" fill="white"/>
<path d="M33.5691 79.6233H31.0459V97.7002H33.5691V79.6233Z" fill="white"/>
<path d="M47.9414 79.6233H50.4581V87.2189H53.144L57.6962 79.6233H60.4796L55.238 88.196V88.2481L60.8177 97.6937H57.9498L53.144 89.3946H50.4581V97.6937H47.9414V79.6233Z" fill="white"/>
<path d="M82.259 92.4955H75.4697L73.6748 97.6939H71.0605L77.5637 79.6169H80.2235L86.7137 97.6939H84.0799L82.259 92.4955ZM78.8644 82.1054C78.7798 82.4246 78.6953 82.7373 78.6173 83.0434C78.5522 83.3105 78.4742 83.5906 78.3896 83.8837C78.3051 84.1769 78.2271 84.4375 78.149 84.672L76.1265 90.398H81.5957L79.5992 84.672C79.5277 84.4375 79.4432 84.1769 79.3651 83.8837C79.2806 83.5906 79.209 83.3105 79.1375 83.0434C79.053 82.7373 78.9814 82.4246 78.9099 82.1054H78.8644Z" fill="white"/>
<path d="M114.846 79.6235H117.344L125.369 91.3751C125.538 91.6161 125.707 91.8897 125.889 92.1959C126.071 92.5021 126.233 92.7822 126.383 93.0493C126.552 93.3685 126.715 93.6811 126.884 93.9873H126.936C126.903 93.6811 126.871 93.3684 126.845 93.0623C126.819 92.7952 126.799 92.5086 126.78 92.2024C126.76 91.8963 126.754 91.6227 126.754 91.3686V79.6169H129.29V97.6939H126.806L118.755 85.9683C118.586 85.7208 118.417 85.4406 118.241 85.141C118.065 84.8348 117.903 84.5482 117.753 84.2811C117.578 83.9619 117.409 83.6492 117.24 83.33H117.187C117.213 83.6492 117.24 83.9619 117.272 84.2681C117.292 84.5352 117.305 84.8218 117.331 85.1214C117.35 85.4276 117.363 85.7077 117.363 85.9683V97.6939H114.84V79.6235H114.846Z" fill="white"/>
<path d="M152.585 92.4955H145.795L144 97.6939H141.393L147.896 79.6169H150.556L157.046 97.6939H154.412L152.585 92.4955ZM149.19 82.1054C149.105 82.4246 149.021 82.7373 148.943 83.0434C148.878 83.3105 148.8 83.5906 148.715 83.8837C148.631 84.1769 148.553 84.4375 148.475 84.672L146.452 90.398H151.921L149.925 84.672C149.853 84.4375 149.769 84.1769 149.691 83.8837C149.606 83.5906 149.535 83.3105 149.463 83.0434C149.379 82.7373 149.307 82.4246 149.235 82.1054H149.19Z" fill="white"/>
<path d="M167.893 88.6325C167.893 87.7661 167.997 86.9322 168.211 86.131C168.426 85.3298 168.725 84.5871 169.109 83.8966C169.499 83.2061 169.967 82.5742 170.52 82.014C171.073 81.4538 171.69 80.9717 172.373 80.5679C173.056 80.1705 173.797 79.8578 174.597 79.6428C175.397 79.4279 176.23 79.3171 177.108 79.3171C177.647 79.3171 178.155 79.3497 178.629 79.4083C179.104 79.4735 179.546 79.5516 179.956 79.6559C180.366 79.7601 180.743 79.8774 181.088 80.0076C181.426 80.1379 181.738 80.2682 182.011 80.3985C182.648 80.7242 183.201 81.089 183.669 81.4864L182.395 83.3755C181.979 83.0498 181.51 82.7566 180.997 82.5026C180.548 82.2876 180.015 82.0857 179.39 81.8968C178.772 81.7078 178.077 81.6167 177.303 81.6167C176.236 81.6167 175.287 81.799 174.448 82.1573C173.609 82.5221 172.894 83.0172 172.315 83.6426C171.729 84.2744 171.287 85.0105 170.975 85.8574C170.663 86.7042 170.507 87.6097 170.507 88.5738C170.507 89.6226 170.676 90.5867 171.014 91.4531C171.352 92.326 171.814 93.0686 172.412 93.6875C173.011 94.3063 173.713 94.7949 174.519 95.1402C175.332 95.4854 176.21 95.6613 177.16 95.6613C177.55 95.6613 177.92 95.6287 178.278 95.5636C178.629 95.4984 178.968 95.4138 179.28 95.3095C179.592 95.1988 179.878 95.0815 180.145 94.9447C180.411 94.8144 180.658 94.6776 180.879 94.5343C181.393 94.2021 181.855 93.8243 182.265 93.4074V90.7952H179.332V88.5934H184.573V97.6807H182.336V96.5537V96.2736C182.336 96.1759 182.343 96.0912 182.349 96.0196C182.356 95.9284 182.362 95.8502 182.375 95.7851H182.31C181.913 96.202 181.439 96.5733 180.886 96.899C180.411 97.1726 179.832 97.4267 179.143 97.6546C178.46 97.8826 177.667 97.9999 176.769 97.9999C175.963 97.9999 175.183 97.8957 174.428 97.6872C173.674 97.4788 172.972 97.1791 172.315 96.7948C171.658 96.4104 171.053 95.9349 170.513 95.3812C169.967 94.8275 169.499 94.2021 169.115 93.5116C168.725 92.8211 168.432 92.0589 168.218 91.2381C167.997 90.4239 167.893 89.551 167.893 88.6325Z" fill="white"/>
<path d="M197.983 79.6233H200.5V87.5576H209.858V79.6233H212.394V97.6937H209.858V89.7594H200.5V97.6937H197.983V79.6233Z" fill="white"/>
<path d="M226.805 93.707C227.189 94.0718 227.618 94.3975 228.093 94.6842C228.502 94.9252 228.984 95.1467 229.543 95.3486C230.102 95.5506 230.72 95.6483 231.396 95.6483C231.819 95.6483 232.222 95.5896 232.599 95.4724C232.977 95.3551 233.308 95.1858 233.594 94.9578C233.874 94.7363 234.102 94.4562 234.271 94.1239C234.44 93.7917 234.518 93.4139 234.518 92.9839C234.518 92.4954 234.394 92.072 234.147 91.7137C233.9 91.3619 233.568 91.0427 233.152 90.7626C232.742 90.4825 232.274 90.2284 231.754 89.9939C231.234 89.7594 230.701 89.5249 230.154 89.2839C229.608 89.0429 229.068 88.7823 228.548 88.4957C228.028 88.2156 227.559 87.8768 227.15 87.4925C226.74 87.1081 226.408 86.6652 226.161 86.1571C225.914 85.649 225.784 85.0496 225.784 84.3591C225.784 83.6621 225.927 83.0042 226.213 82.3918C226.499 81.7795 226.903 81.2453 227.416 80.7893C227.93 80.3333 228.548 79.9751 229.263 79.7145C229.979 79.4539 230.759 79.3171 231.611 79.3171C232.45 79.3171 233.191 79.4148 233.822 79.6037C234.453 79.7927 234.986 80.0011 235.422 80.2291C235.929 80.4962 236.365 80.7959 236.722 81.1281L235.571 83.2257C235.227 82.9325 234.856 82.6785 234.446 82.4505C234.095 82.2616 233.679 82.0792 233.198 81.9163C232.716 81.7534 232.19 81.6688 231.611 81.6688C231.13 81.6688 230.687 81.7404 230.291 81.8837C229.894 82.027 229.549 82.216 229.263 82.4505C228.977 82.685 228.75 82.9651 228.587 83.2843C228.424 83.6035 228.346 83.9487 228.346 84.3005C228.346 84.7695 228.47 85.1669 228.724 85.4991C228.971 85.8313 229.302 86.131 229.719 86.3916C230.128 86.6521 230.596 86.8997 231.117 87.1147C231.637 87.3361 232.17 87.5641 232.723 87.8052C233.269 88.0397 233.809 88.3067 234.329 88.5869C234.85 88.8735 235.318 89.2122 235.727 89.6096C236.137 90.007 236.469 90.4695 236.722 91.0036C236.97 91.5378 237.1 92.1697 237.1 92.9058C237.1 93.6028 236.97 94.2607 236.709 94.8796C236.449 95.4984 236.072 96.0326 235.578 96.4951C235.084 96.9576 234.485 97.3224 233.783 97.596C233.074 97.8696 232.274 97.9999 231.377 97.9999C230.896 97.9999 230.44 97.9673 230.018 97.9022C229.595 97.837 229.198 97.7458 228.828 97.6351C228.457 97.5244 228.112 97.3941 227.8 97.2508C227.481 97.1075 227.202 96.9641 226.948 96.8143C226.356 96.4625 225.843 96.0652 225.4 95.6157L226.805 93.707Z" fill="white"/>
<path d="M250.165 79.6233H252.688V87.5576H262.046V79.6233H264.583V97.6937H262.046V89.7594H252.688V97.6937H250.165V79.6233Z" fill="white"/>
<path d="M297.482 79.6233H294.959V97.7002H297.482V79.6233Z" fill="white"/>
<path d="M311.854 79.6233H317.369C317.844 79.6233 318.253 79.6298 318.598 79.6493C318.943 79.6624 319.248 79.6949 319.508 79.734C319.769 79.7731 319.996 79.8187 320.185 79.8643C320.373 79.9164 320.562 79.975 320.731 80.0402C321.186 80.2161 321.609 80.4571 321.986 80.7633C322.363 81.0694 322.682 81.4342 322.949 81.8511C323.209 82.2681 323.417 82.7371 323.56 83.2582C323.703 83.7794 323.781 84.3331 323.781 84.9259C323.781 85.4991 323.703 86.0463 323.547 86.5674C323.391 87.0886 323.176 87.5641 322.89 87.994C322.61 88.424 322.266 88.7953 321.869 89.108C321.472 89.4207 321.024 89.6552 320.536 89.8115V89.8636C320.575 89.9092 320.62 89.9679 320.672 90.0525C320.718 90.1177 320.77 90.2089 320.835 90.3131C320.9 90.4238 320.978 90.5476 321.069 90.6909L324.9 97.7067H322.045L318.24 90.515H314.371V97.7067H311.848V79.6233H311.854ZM318.006 88.2937C318.494 88.2937 318.943 88.2221 319.333 88.0657C319.73 87.9159 320.061 87.7009 320.341 87.4143C320.614 87.1342 320.829 86.7889 320.978 86.385C321.128 85.9811 321.206 85.5252 321.206 85.0171C321.206 84.3526 321.082 83.7859 320.835 83.3168C320.588 82.8478 320.237 82.4895 319.769 82.229C319.651 82.1703 319.521 82.1117 319.378 82.0596C319.235 82.0075 319.073 81.9619 318.878 81.9293C318.682 81.8967 318.461 81.8707 318.201 81.8446C317.941 81.8251 317.642 81.8121 317.291 81.8121H314.371V88.2872H318.006V88.2937Z" fill="white"/>
<path d="M346.633 92.4955H339.844L338.049 97.6939H335.441L341.945 79.6169H344.604L351.095 97.6939H348.461L346.633 92.4955ZM343.239 82.1054C343.154 82.4246 343.07 82.7373 342.992 83.0434C342.927 83.3105 342.849 83.5906 342.771 83.8837C342.686 84.1769 342.608 84.4375 342.53 84.672L340.507 90.398H345.97L343.974 84.672C343.896 84.4375 343.818 84.1769 343.733 83.8837C343.648 83.5906 343.577 83.3105 343.512 83.0434C343.427 82.7373 343.356 82.4246 343.284 82.1054H343.239Z" fill="white"/>
<path d="M363.203 79.6235H365.7L373.725 91.3751C373.894 91.6161 374.063 91.8897 374.246 92.1959C374.421 92.5021 374.59 92.7822 374.74 93.0493C374.909 93.3685 375.071 93.6811 375.241 93.9873H375.293C375.26 93.6811 375.228 93.3684 375.208 93.0623C375.182 92.7952 375.163 92.5086 375.15 92.2024C375.13 91.8963 375.124 91.6227 375.124 91.3686V79.6169H377.653V97.6939H375.169L367.118 85.9683C366.949 85.7208 366.78 85.4406 366.604 85.141C366.429 84.8348 366.266 84.5482 366.117 84.2811C365.941 83.9619 365.772 83.6492 365.603 83.33H365.551C365.577 83.6492 365.603 83.9619 365.635 84.2681C365.655 84.5352 365.674 84.8218 365.694 85.1214C365.713 85.4276 365.726 85.7077 365.726 85.9683V97.6939H363.203V79.6235Z" fill="white"/>
<path d="M394.529 79.6233H392.006V97.7002H394.529V79.6233Z" fill="white"/>
<path d="M417.836 92.4955H411.047L409.252 97.6939H406.645L413.148 79.6169H415.807L422.298 97.6939H419.664L417.836 92.4955ZM414.442 82.1054C414.357 82.4246 414.273 82.7373 414.195 83.0434C414.13 83.3105 414.052 83.5906 413.974 83.8837C413.889 84.1769 413.811 84.4375 413.733 84.672L411.71 90.398H417.173L415.177 84.672C415.099 84.4375 415.021 84.1769 414.936 83.8837C414.852 83.5906 414.78 83.3105 414.715 83.0434C414.63 82.7373 414.559 82.4246 414.487 82.1054H414.442Z" fill="white"/>
<path d="M434.407 79.6235H436.904L444.929 91.3751C445.098 91.6161 445.267 91.8897 445.449 92.1959C445.625 92.5021 445.794 92.7822 445.943 93.0493C446.113 93.3685 446.275 93.6811 446.444 93.9873H446.496C446.464 93.6811 446.431 93.3684 446.412 93.0623C446.386 92.7952 446.366 92.5086 446.353 92.2024C446.334 91.8963 446.327 91.6227 446.327 91.3686V79.6169H448.857V97.6939H446.373L438.322 85.9683C438.153 85.7208 437.984 85.4406 437.808 85.141C437.632 84.8348 437.47 84.5482 437.32 84.2811C437.145 83.9619 436.975 83.6492 436.806 83.33H436.754C436.78 83.6492 436.806 83.9619 436.839 84.2681C436.858 84.5352 436.878 84.8218 436.897 85.1214C436.917 85.4276 436.93 85.7077 436.93 85.9683V97.6939H434.407V79.6235Z" fill="white"/>
</svg>
