<svg width="282" height="120" viewBox="0 0 282 120" fill="none" xmlns="http://www.w3.org/2000/svg">
<path d="M60.0227 116.176C60.1525 116.176 60.2728 116.229 60.3689 116.333L61.3211 117.352C60.595 118.186 59.715 118.838 58.6763 119.3C57.6424 119.767 56.3873 120 54.9158 120C53.6463 120 52.4874 119.781 51.4487 119.343C50.41 118.905 49.5204 118.291 48.7847 117.505C48.0489 116.714 47.4815 115.771 47.0776 114.667C46.6736 113.562 46.4717 112.347 46.4717 111.024C46.4717 109.7 46.6833 108.485 47.1016 107.381C47.5248 106.276 48.1163 105.328 48.8809 104.538C49.6454 103.742 50.5591 103.128 51.6218 102.69C52.6846 102.252 53.8627 102.033 55.1515 102.033C56.4162 102.033 57.527 102.233 58.4935 102.633C59.4601 103.033 60.3112 103.576 61.0422 104.261L60.2487 105.352C60.2006 105.433 60.1333 105.5 60.0564 105.552C59.9794 105.604 59.8736 105.633 59.739 105.633C59.5899 105.633 59.4072 105.552 59.1956 105.395C58.9792 105.238 58.7003 105.057 58.3541 104.861C58.0078 104.666 57.5751 104.485 57.0557 104.328C56.5364 104.171 55.8968 104.09 55.137 104.09C54.2186 104.09 53.3818 104.247 52.6221 104.561C51.8623 104.876 51.2083 105.333 50.6601 105.928C50.1119 106.523 49.6839 107.252 49.3762 108.109C49.0684 108.966 48.9193 109.938 48.9193 111.014C48.9193 112.109 49.078 113.086 49.3954 113.947C49.7128 114.805 50.1456 115.533 50.6938 116.124C51.242 116.714 51.8911 117.167 52.6365 117.481C53.3818 117.79 54.1897 117.948 55.0553 117.948C55.5842 117.948 56.0603 117.919 56.4835 117.857C56.9066 117.795 57.301 117.7 57.6616 117.567C58.0223 117.433 58.3541 117.271 58.6666 117.071C58.9744 116.871 59.2822 116.633 59.5899 116.352C59.7438 116.238 59.8833 116.176 60.0227 116.176Z" fill="white"/>
<path d="M84.7156 117.871L84.7012 119.809H73.7661V102.237H84.7012V104.175H76.1705V110.014H83.0806V111.876H76.1705V117.871H84.7156Z" fill="white"/>
<path d="M110.846 119.805H108.716C108.278 119.805 107.956 119.638 107.749 119.3L103.143 113.024C103.003 112.828 102.849 112.685 102.691 112.6C102.532 112.514 102.282 112.471 101.94 112.471H100.118V119.805H97.728V102.233H102.744C103.864 102.233 104.835 102.347 105.653 102.571C106.47 102.795 107.144 103.118 107.677 103.547C108.211 103.976 108.605 104.485 108.86 105.085C109.115 105.685 109.245 106.357 109.245 107.104C109.245 107.723 109.144 108.304 108.947 108.847C108.75 109.385 108.461 109.871 108.086 110.3C107.711 110.728 107.254 111.095 106.711 111.395C106.172 111.7 105.557 111.928 104.874 112.081C105.177 112.252 105.441 112.5 105.667 112.828L110.846 119.805ZM102.647 110.743C103.34 110.743 103.955 110.657 104.484 110.49C105.018 110.323 105.46 110.085 105.821 109.781C106.182 109.476 106.451 109.109 106.634 108.685C106.817 108.261 106.908 107.79 106.908 107.276C106.908 106.228 106.562 105.442 105.869 104.909C105.177 104.376 104.133 104.114 102.748 104.114H100.123V110.747H102.647V110.743Z" fill="white"/>
<path d="M137.333 119.805H135.477C135.26 119.805 135.087 119.752 134.957 119.648C134.828 119.543 134.727 119.405 134.659 119.243L133 115H125.037L123.378 119.243C123.33 119.39 123.234 119.519 123.094 119.633C122.955 119.748 122.782 119.805 122.575 119.805H120.719L127.816 102.233H130.245L137.333 119.805ZM132.327 113.281L129.543 106.133C129.461 105.919 129.374 105.671 129.283 105.39C129.192 105.109 129.105 104.809 129.023 104.49C128.85 105.152 128.672 105.704 128.49 106.147L125.705 113.285H132.327V113.281Z" fill="white"/>
<path d="M167.791 102.233V119.805H165.685V106.89C165.685 106.718 165.69 106.533 165.704 106.337C165.719 106.142 165.733 105.942 165.748 105.737L159.655 116.724C159.463 117.09 159.174 117.276 158.789 117.276H158.443C158.054 117.276 157.765 117.09 157.577 116.724L151.36 105.685C151.408 106.118 151.432 106.518 151.432 106.885V119.8H149.326V102.228H151.095C151.312 102.228 151.475 102.247 151.591 102.29C151.706 102.333 151.817 102.447 151.927 102.633L158.058 113.447C158.159 113.643 158.256 113.847 158.352 114.062C158.448 114.276 158.534 114.49 158.616 114.714C158.698 114.495 158.784 114.276 158.876 114.057C158.967 113.843 159.063 113.633 159.174 113.438L165.19 102.633C165.291 102.442 165.397 102.333 165.517 102.29C165.637 102.247 165.805 102.228 166.017 102.228H167.791V102.233Z" fill="white"/>
<path d="M184.386 119.805H181.982V102.233H184.386V119.805Z" fill="white"/>
<path d="M211.032 116.176C211.161 116.176 211.282 116.229 211.378 116.333L212.33 117.352C211.604 118.186 210.724 118.838 209.685 119.3C208.651 119.767 207.396 120 205.925 120C204.655 120 203.496 119.781 202.458 119.343C201.419 118.905 200.529 118.291 199.793 117.505C199.058 116.714 198.49 115.771 198.086 114.667C197.682 113.562 197.48 112.347 197.48 111.024C197.48 109.7 197.692 108.485 198.11 107.381C198.534 106.276 199.125 105.328 199.89 104.538C200.654 103.742 201.568 103.128 202.631 102.69C203.693 102.252 204.872 102.033 206.16 102.033C207.425 102.033 208.536 102.233 209.502 102.633C210.469 103.033 211.32 103.576 212.051 104.261L211.258 105.352C211.209 105.433 211.142 105.5 211.065 105.552C210.988 105.604 210.882 105.633 210.748 105.633C210.599 105.633 210.416 105.552 210.204 105.395C209.988 105.238 209.709 105.057 209.363 104.861C209.017 104.666 208.584 104.485 208.065 104.328C207.545 104.171 206.906 104.09 206.146 104.09C205.227 104.09 204.391 104.247 203.631 104.561C202.871 104.876 202.217 105.333 201.669 105.928C201.121 106.523 200.693 107.252 200.385 108.109C200.077 108.966 199.928 109.938 199.928 111.014C199.928 112.109 200.087 113.086 200.404 113.947C200.722 114.805 201.154 115.533 201.703 116.124C202.251 116.714 202.9 117.167 203.645 117.481C204.391 117.79 205.198 117.948 206.064 117.948C206.593 117.948 207.069 117.919 207.492 117.857C207.915 117.795 208.31 117.7 208.67 117.567C209.031 117.438 209.363 117.271 209.675 117.071C209.983 116.871 210.291 116.633 210.599 116.352C210.753 116.238 210.892 116.176 211.032 116.176Z" fill="white"/>
<path d="M233.854 104.98C233.782 105.104 233.7 105.195 233.613 105.257C233.527 105.318 233.421 105.347 233.296 105.347C233.157 105.347 232.988 105.276 232.801 105.137C232.608 104.999 232.373 104.847 232.089 104.676C231.805 104.504 231.464 104.356 231.06 104.214C230.661 104.076 230.175 104.004 229.603 104.004C229.064 104.004 228.593 104.076 228.184 104.218C227.776 104.361 227.434 104.557 227.155 104.799C226.876 105.047 226.67 105.333 226.53 105.666C226.391 105.995 226.319 106.357 226.319 106.738C226.319 107.228 226.439 107.633 226.684 107.957C226.929 108.28 227.251 108.557 227.651 108.785C228.05 109.014 228.507 109.214 229.011 109.381C229.521 109.547 230.041 109.723 230.569 109.9C231.103 110.081 231.623 110.281 232.128 110.504C232.637 110.728 233.089 111.014 233.488 111.357C233.887 111.7 234.21 112.123 234.455 112.619C234.7 113.119 234.82 113.733 234.82 114.457C234.82 115.224 234.691 115.947 234.426 116.624C234.162 117.3 233.777 117.886 233.267 118.386C232.757 118.886 232.137 119.276 231.397 119.562C230.656 119.848 229.819 119.99 228.877 119.99C227.723 119.99 226.674 119.786 225.732 119.371C224.789 118.957 223.986 118.4 223.318 117.7L224.01 116.571C224.078 116.481 224.155 116.405 224.251 116.343C224.347 116.281 224.453 116.252 224.568 116.252C224.674 116.252 224.799 116.295 224.934 116.381C225.068 116.466 225.227 116.576 225.4 116.705C225.573 116.833 225.77 116.981 225.996 117.133C226.218 117.29 226.472 117.433 226.756 117.562C227.04 117.69 227.367 117.8 227.727 117.886C228.093 117.971 228.502 118.014 228.954 118.014C229.521 118.014 230.031 117.938 230.478 117.781C230.925 117.624 231.3 117.405 231.613 117.124C231.921 116.843 232.161 116.505 232.325 116.114C232.488 115.724 232.57 115.286 232.57 114.8C232.57 114.266 232.45 113.833 232.204 113.495C231.959 113.157 231.642 112.871 231.243 112.643C230.848 112.414 230.392 112.219 229.882 112.062C229.372 111.904 228.848 111.738 228.324 111.571C227.795 111.404 227.275 111.209 226.766 110.99C226.256 110.771 225.799 110.485 225.405 110.133C225.011 109.781 224.688 109.342 224.443 108.814C224.198 108.285 224.078 107.633 224.078 106.857C224.078 106.238 224.198 105.633 224.443 105.057C224.688 104.476 225.039 103.961 225.506 103.514C225.972 103.066 226.545 102.704 227.227 102.433C227.91 102.161 228.689 102.028 229.574 102.028C230.565 102.028 231.469 102.185 232.281 102.495C233.094 102.804 233.811 103.256 234.431 103.842L233.854 104.98Z" fill="white"/>
<path fill-rule="evenodd" clip-rule="evenodd" d="M25.0055 111.085H0V109.18H25.0055V111.085Z" fill="white"/>
<path fill-rule="evenodd" clip-rule="evenodd" d="M281.312 111.324H256.306V109.419H281.312V111.324Z" fill="white"/>
<path d="M218.394 10.1005H266.019L263.87 0.495361H218.394V10.1005Z" fill="white"/>
<path d="M218.389 73.7078H281.311L279.162 64.1027H229.295V37.0397H272.487L270.338 27.4346H218.312L218.389 73.7078Z" fill="white"/>
<path d="M147.676 74.8934H158.669V9.71467H178.14C183.449 9.71467 187.661 10.8814 190.647 13.1815C193.643 15.4863 195.292 19.3912 195.292 24.1676C195.292 28.7678 193.48 33.0965 190.561 35.4728C187.493 37.9682 183.352 39.2301 178.25 39.2301H168.993L194.913 73.6839H207.8L187.454 46.9066L189.171 46.4495C191.753 45.759 194.138 44.7637 196.264 43.4874C198.37 42.2255 200.202 40.6635 201.722 38.8587C203.232 37.0586 204.434 34.949 205.299 32.587C206.088 30.4298 206.598 26.8487 206.598 23.4628C206.598 19.7817 205.915 16.1102 204.722 13.391C203.487 10.5671 201.693 8.15747 199.399 6.21929C197.086 4.2716 194.196 2.7382 190.82 1.66673C187.406 0.585737 183.525 0.0380967 179.289 0.0380967H162.708L162.723 0H147.676" fill="white"/>
<path d="M137.222 0H137.237H125.152L101.128 61.5548L76.9929 0H64.5815L95.7422 75.3697H106.067L133.183 10.3195" fill="white"/>
<path d="M0.168457 74.7458H11.3151V49.9924H30.6799C34.8491 49.9924 38.8163 49.4352 42.471 48.34C46.092 47.2542 49.2946 45.6399 51.9875 43.5398C54.6515 41.4587 56.7866 38.8205 58.335 35.7014C59.8786 32.5822 60.6624 28.9059 60.6624 24.7819C60.6624 21.0056 60.0037 17.5721 58.7053 14.5815C57.4069 11.6004 55.5267 9.00032 53.1175 6.85738C50.6939 4.70491 47.6981 3.02866 44.2069 1.87623C40.6821 0.709517 36.6764 0.123779 32.3101 0.123779H0.168457L0.211736 9.9575H31.1368C36.5081 9.9575 40.8841 11.2099 44.13 13.6815C47.4769 16.2292 49.1696 20.0579 49.1696 25.0629C49.1696 29.6059 47.5105 33.3108 44.231 36.0728C41.0091 38.792 36.6043 40.1682 31.132 40.1682H0.221353L0.168457 74.7458Z" fill="white"/>
</svg>
