<svg width="210" height="120" viewBox="0 0 210 120" fill="none" xmlns="http://www.w3.org/2000/svg">
<path d="M177.024 32.7679L207.49 0H194.647L160.198 37.2362V0H150.839V71.6922H160.198V50.9392L170.602 39.669L196.638 71.6922H208.785L177.024 32.7679Z" fill="white"/>
<path d="M159.849 0H150.49V71.6922H159.849V0Z" fill="white"/>
<path d="M107.18 0H100.31L67.4043 71.6922H77.9082L103.795 14.8448L130.079 71.6922H140.484L107.18 0Z" fill="white"/>
<path d="M123.359 40.811L103.944 50.4428L84.9277 41.0096V51.5351L103.944 60.9683L123.359 51.3365V40.811Z" fill="white"/>
<path d="M16.9756 103.467L15.6812 105.155C14.1878 103.666 12.1467 102.772 10.0061 102.772C5.67511 102.772 2.19039 106.098 2.19039 110.319C2.19039 114.489 5.67511 117.865 10.0061 117.865C12.0969 117.865 14.1878 116.971 15.6812 115.581L17.0253 117.071C15.1336 118.858 12.545 120 9.90656 120C4.38079 120 0 115.73 0 110.319C0 104.957 4.43057 100.736 10.0061 100.736C12.5948 100.687 15.1336 101.779 16.9756 103.467Z" fill="white"/>
<path d="M32.707 102.871V109.127H42.3646V111.212H32.707V117.766H43.8581V119.851H30.5166V100.737H43.5096V102.871H32.707Z" fill="white"/>
<path d="M66.4589 113.794C66.0607 113.844 65.6126 113.844 65.1646 113.844H60.0869V119.851H57.8965V100.737H65.1646C69.9436 100.737 72.7314 103.07 72.7314 107.141C72.7314 110.319 71.1882 112.454 68.4502 113.347L72.9305 119.851H70.4415L66.4589 113.794ZM65.1646 111.709C68.6493 111.709 70.5908 110.17 70.5908 107.191C70.5908 104.311 68.5995 102.822 65.1646 102.822H60.0869V111.709H65.1646Z" fill="white"/>
<path d="M87.8153 115.035L85.6747 119.851H83.335L91.9472 100.737H94.2371L102.8 119.851H100.41L98.2695 115.035H87.8153ZM92.9926 103.219L88.7114 112.9H97.3236L92.9926 103.219Z" fill="white"/>
<path d="M132.917 119.851L132.867 104.113L125.898 117.865H124.603L117.634 104.113V119.851H115.543V100.737H118.281L125.3 114.489L132.27 100.737H134.958V119.851H132.917Z" fill="white"/>
<path d="M153.477 100.737H151.286V119.851H153.477V100.737Z" fill="white"/>
<path d="M184.043 103.467L182.749 105.155C181.255 103.666 179.214 102.772 177.073 102.772C172.742 102.772 169.258 106.098 169.258 110.319C169.258 114.489 172.742 117.865 177.073 117.865C179.164 117.865 181.255 116.971 182.749 115.581L184.093 117.071C182.201 118.858 179.612 120 176.974 120C171.448 120 167.067 115.73 167.067 110.319C167.067 104.957 171.498 100.736 177.073 100.736C179.662 100.687 182.201 101.779 184.043 103.467Z" fill="white"/>
<path d="M208.834 102.425L207.889 104.46C206.146 103.318 204.155 102.871 202.612 102.871C200.172 102.871 198.53 103.815 198.53 105.403C198.53 110.319 209.332 107.737 209.282 114.688C209.282 117.865 206.445 119.95 202.363 119.95C199.575 119.95 196.837 118.759 195.045 117.021L196.041 115.035C197.833 116.773 200.272 117.716 202.413 117.716C205.2 117.716 206.893 116.574 206.893 114.787C206.943 109.772 196.14 112.454 196.14 105.602C196.14 102.623 198.779 100.637 202.761 100.637C205.001 100.687 207.241 101.382 208.834 102.425Z" fill="white"/>
<path d="M27.6292 0H19.7139V9.33388H27.6292C36.2912 9.33388 46.6458 11.9652 46.6458 24.6256C46.6458 37.6334 36.2912 40.3641 27.6292 40.3641H19.7139V49.698H27.6292C29.0728 49.698 27.5296 49.6483 31.761 49.4994C35.9427 49.4001 41.6676 47.2156 41.6676 47.2156C50.8274 43.3926 55.9549 35.3993 55.9549 24.6256C55.9549 9.18493 45.3514 0 27.6292 0Z" fill="white"/>
<path d="M43.0613 45.6764H22.2028V40.3144H9.75739V9.33388H22.2028V0H0.398438V71.6922H9.75739V49.6483H25.9862C27.4299 49.6483 28.774 49.549 30.1181 49.4497L46.3967 71.6922H57.9958L40.0744 47.1659C41.1198 46.7687 42.1155 46.2226 43.0613 45.6764Z" fill="white"/>
</svg>
